<svg width="106" height="106" viewBox="0 0 106 106" fill="none" xmlns="http://www.w3.org/2000/svg">
<path d="M53 103C80.615 103 103 80.615 103 53C103 25.385 80.615 3 53 3C25.385 3 3 25.385 3 53C3 80.615 25.385 103 53 103Z" stroke="white" stroke-width="5" stroke-linecap="round" stroke-linejoin="round"/>
<path d="M64.6648 88.0001V78.6851C64.7898 77.1351 64.5748 75.5851 64.0348 74.1201C63.4912 72.6542 62.6386 71.3224 61.5348 70.2151C71.9998 69.0801 82.9998 65.2151 82.9998 47.4951C82.9903 42.9403 81.1951 38.571 77.9998 35.3251C79.5206 31.3656 79.4127 26.9653 77.6998 23.0851C77.6998 23.0851 73.7648 21.9501 64.6648 27.8901C57.0188 25.8744 48.9809 25.8744 41.3348 27.8901C32.2348 21.9501 28.2998 23.0901 28.2998 23.0901C26.5897 26.9674 26.4819 31.3636 27.9998 35.3201C24.7824 38.59 22.9855 42.9977 22.9998 47.5851C22.9998 65.1801 33.9998 69.0401 44.4648 70.3051C43.3731 71.4027 42.5277 72.7202 41.9848 74.1701C41.446 75.609 41.2242 77.1475 41.3348 78.6801V88.0001" stroke="white" stroke-width="5" stroke-linecap="round" stroke-linejoin="round"/>
<path d="M41.335 81.51C31.335 84.665 23 81.51 18 71.77" stroke="white" stroke-width="5" stroke-linecap="round" stroke-linejoin="round"/>
</svg>
