<svg width="120" height="120" viewBox="0 0 120 120" fill="none" xmlns="http://www.w3.org/2000/svg">
<path d="M97.5 18.75H22.5C19.5163 18.75 16.6548 19.9353 14.545 22.045C12.4353 24.1548 11.25 27.0163 11.25 30V90C11.25 92.9837 12.4353 95.8452 14.545 97.955C16.6548 100.065 19.5163 101.25 22.5 101.25H97.5C100.484 101.25 103.345 100.065 105.455 97.955C107.565 95.8452 108.75 92.9837 108.75 90V30C108.75 27.0163 107.565 24.1548 105.455 22.045C103.345 19.9353 100.484 18.75 97.5 18.75V18.75Z" stroke="white" stroke-width="5" stroke-linecap="round" stroke-linejoin="round"/>
<path d="M78.75 48.75C80.7391 48.75 82.6468 47.9598 84.0533 46.5533C85.4598 45.1468 86.25 43.2391 86.25 41.25C86.25 39.2609 85.4598 37.3532 84.0533 35.9467C82.6468 34.5402 80.7391 33.75 78.75 33.75C76.7609 33.75 74.8532 34.5402 73.4467 35.9467C72.0402 37.3532 71.25 39.2609 71.25 41.25C71.25 43.2391 72.0402 45.1468 73.4467 46.5533C74.8532 47.9598 76.7609 48.75 78.75 48.75Z" stroke="white" stroke-width="5" stroke-linecap="round" stroke-linejoin="round"/>
<path d="M71.25 78.715L50 57.51C48.648 56.1588 46.8311 55.3747 44.9205 55.318C43.0099 55.2613 41.1497 55.9363 39.72 57.205L11.25 82.515" stroke="white" stroke-width="5" stroke-linecap="round" stroke-linejoin="round"/>
<path d="M53 101.16L81.91 72.2554C83.2317 70.9316 85.0003 70.1495 86.8689 70.0626C88.7375 69.9756 90.5711 70.5901 92.01 71.7854L109.25 86.1604" stroke="white" stroke-width="5" stroke-linecap="round" stroke-linejoin="round"/>
</svg>
