<svg width="128" height="128" viewBox="0 0 128 128" fill="none" xmlns="http://www.w3.org/2000/svg">
<g clip-path="url(#clip0_1017_249)">
<path d="M98 0H30C13.4315 0 0 13.4315 0 30V98C0 114.569 13.4315 128 30 128H98C114.569 128 128 114.569 128 98V30C128 13.4315 114.569 0 98 0Z" fill="url(#paint0_radial_1017_249)"/>
<path d="M98 0H30C13.4315 0 0 13.4315 0 30V98C0 114.569 13.4315 128 30 128H98C114.569 128 128 114.569 128 98V30C128 13.4315 114.569 0 98 0Z" fill="url(#paint1_radial_1017_249)"/>
<path d="M64.0045 14C50.4255 14 48.721 14.0595 43.388 14.302C38.065 14.546 34.4315 15.3885 31.2525 16.625C27.9635 17.902 25.174 19.6105 22.395 22.3905C19.6135 25.17 17.905 27.9595 16.624 31.247C15.384 34.427 14.5405 38.062 14.301 43.3825C14.0625 48.716 14 50.421 14 64.0005C14 77.58 14.06 79.279 14.302 84.612C14.547 89.935 15.3895 93.5685 16.625 96.7475C17.903 100.036 19.6115 102.826 22.3915 105.605C25.17 108.387 27.9595 110.099 31.246 111.376C34.4275 112.612 38.0615 113.455 43.3835 113.699C48.717 113.941 50.42 114.001 63.9985 114.001C77.579 114.001 79.278 113.941 84.611 113.699C89.934 113.455 93.5715 112.612 96.753 111.376C100.04 110.099 102.826 108.387 105.604 105.605C108.385 102.826 110.094 100.037 111.375 96.749C112.604 93.5685 113.448 89.934 113.698 84.613C113.937 79.28 114 77.58 114 64.0005C114 50.421 113.937 48.717 113.698 43.3835C113.448 38.0605 112.604 34.4275 111.375 31.2485C110.094 27.9595 108.385 25.17 105.604 22.3905C102.823 19.6095 100.042 17.901 96.75 16.6255C93.5625 15.3885 89.927 14.5455 84.604 14.302C79.2705 14.0595 77.5725 14 63.989 14H64.0045ZM59.519 23.0105C60.8505 23.0085 62.336 23.0105 64.0045 23.0105C77.355 23.0105 78.937 23.0585 84.209 23.298C89.084 23.521 91.73 24.3355 93.4925 25.02C95.826 25.926 97.4895 27.0095 99.2385 28.76C100.989 30.51 102.072 32.1765 102.98 34.51C103.665 36.27 104.48 38.916 104.702 43.791C104.942 49.062 104.993 50.645 104.993 63.989C104.993 77.333 104.942 78.9165 104.702 84.187C104.479 89.062 103.665 91.708 102.98 93.4685C102.074 95.802 100.989 97.4635 99.2385 99.2125C97.4885 100.963 95.827 102.046 93.4925 102.952C91.732 103.64 89.084 104.452 84.209 104.675C78.938 104.915 77.355 104.966 64.0045 104.966C50.6535 104.966 49.071 104.915 43.8005 104.675C38.9255 104.45 36.2795 103.635 34.5155 102.951C32.1825 102.044 30.5155 100.962 28.7655 99.2115C27.0155 97.4615 25.9325 95.799 25.024 93.4645C24.3395 91.704 23.524 89.058 23.302 84.183C23.0625 78.912 23.0145 77.329 23.0145 63.9765C23.0145 50.6245 23.0625 49.0495 23.302 43.7785C23.525 38.9035 24.3395 36.2575 25.024 34.495C25.9305 32.1615 27.0155 30.495 28.766 28.745C30.516 26.995 32.1825 25.9115 34.516 25.0035C36.2785 24.316 38.9255 23.5035 43.8005 23.2795C48.413 23.071 50.2005 23.0085 59.519 22.998V23.0105ZM90.6945 31.3125C87.382 31.3125 84.6945 33.9975 84.6945 37.3105C84.6945 40.623 87.382 43.3105 90.6945 43.3105C94.007 43.3105 96.6945 40.623 96.6945 37.3105C96.6945 33.998 94.007 31.3105 90.6945 31.3105V31.3125ZM64.0045 38.323C49.8245 38.323 38.3275 49.82 38.3275 64.0005C38.3275 78.181 49.8245 89.6725 64.0045 89.6725C78.185 89.6725 89.678 78.181 89.678 64.0005C89.678 49.8205 78.184 38.323 64.0035 38.323H64.0045ZM64.0045 47.3335C73.209 47.3335 80.6715 54.795 80.6715 64.0005C80.6715 73.205 73.209 80.6675 64.0045 80.6675C54.7995 80.6675 47.338 73.205 47.338 64.0005C47.338 54.795 54.7995 47.3335 64.0045 47.3335Z" fill="white"/>
</g>
<defs>
<radialGradient id="paint0_radial_1017_249" cx="0" cy="0" r="1" gradientUnits="userSpaceOnUse" gradientTransform="translate(34 137.858) rotate(-90) scale(126.858 117.988)">
<stop stop-color="#FFDD55"/>
<stop offset="0.1" stop-color="#FFDD55"/>
<stop offset="0.5" stop-color="#FF543E"/>
<stop offset="1" stop-color="#C837AB"/>
</radialGradient>
<radialGradient id="paint1_radial_1017_249" cx="0" cy="0" r="1" gradientUnits="userSpaceOnUse" gradientTransform="translate(-21.4405 9.2205) rotate(78.681) scale(56.706 233.744)">
<stop stop-color="#3771C8"/>
<stop offset="0.128" stop-color="#3771C8"/>
<stop offset="1" stop-color="#6600FF" stop-opacity="0"/>
</radialGradient>
<clipPath id="clip0_1017_249">
<rect width="128" height="128" fill="white"/>
</clipPath>
</defs>
</svg>
