<svg width="100" height="100" viewBox="0 0 100 100" fill="none" xmlns="http://www.w3.org/2000/svg">
<g clip-path="url(#clip0_733_547)">
<path d="M73.3333 23.3333H79.9999M29.9999 3.33325H69.9999C77.0724 3.33325 83.8551 6.14277 88.8561 11.1437C93.8571 16.1447 96.6666 22.9275 96.6666 29.9999V69.9999C96.6666 77.0724 93.8571 83.8551 88.8561 88.8561C83.8551 93.8571 77.0724 96.6666 69.9999 96.6666H29.9999C22.9275 96.6666 16.1447 93.8571 11.1437 88.8561C6.14277 83.8551 3.33325 77.0724 3.33325 69.9999V29.9999C3.33325 22.9275 6.14277 16.1447 11.1437 11.1437C16.1447 6.14277 22.9275 3.33325 29.9999 3.33325V3.33325ZM49.9999 69.9999C44.6956 69.9999 39.6085 67.8928 35.8578 64.1421C32.1071 60.3913 29.9999 55.3043 29.9999 49.9999C29.9999 44.6956 32.1071 39.6085 35.8578 35.8578C39.6085 32.1071 44.6956 29.9999 49.9999 29.9999C55.3043 29.9999 60.3913 32.1071 64.1421 35.8578C67.8928 39.6085 69.9999 44.6956 69.9999 49.9999C69.9999 55.3043 67.8928 60.3913 64.1421 64.1421C60.3913 67.8928 55.3043 69.9999 49.9999 69.9999Z" stroke="white" stroke-width="5"/>
</g>
<defs>
<clipPath id="clip0_733_547">
<rect width="100" height="100" fill="white"/>
</clipPath>
</defs>
</svg>
