<svg width="128" height="128" viewBox="0 0 128 128" fill="none" xmlns="http://www.w3.org/2000/svg">
<g clip-path="url(#clip0_1017_247)">
<circle cx="64" cy="64" r="64" fill="white"/>
<path d="M0 64.001C0 90.208 15.759 112.722 38.3095 122.62C38.1295 118.151 38.2775 112.787 39.4235 107.924C40.654 102.729 47.6585 73.05 47.6585 73.05C47.6585 73.05 45.614 68.9635 45.614 62.924C45.614 53.4395 51.111 46.356 57.957 46.356C63.7785 46.356 66.591 50.7285 66.591 55.9645C66.591 61.8165 62.8585 70.57 60.939 78.6775C59.3355 85.4665 64.343 91.004 71.0405 91.004C83.1665 91.004 91.3335 75.4295 91.3335 56.9765C91.3335 42.9495 81.886 32.4505 64.7025 32.4505C45.2885 32.4505 33.194 46.9285 33.194 63.1005C33.194 68.6765 34.838 72.6085 37.413 75.6535C38.597 77.052 38.7615 77.6145 38.333 79.2205C38.026 80.398 37.321 83.233 37.029 84.3565C36.603 85.9775 35.2895 86.557 33.8245 85.9585C24.8825 82.308 20.718 72.5155 20.718 61.5075C20.718 43.327 36.051 21.527 66.459 21.527C90.894 21.527 106.977 39.209 106.977 58.1895C106.977 83.296 93.0185 102.052 72.4435 102.052C65.534 102.052 59.0345 98.3175 56.808 94.075C56.808 94.075 53.0925 108.821 52.3055 111.669C50.9485 116.603 48.2925 121.535 45.864 125.379C51.7528 127.12 57.8617 128.004 64.0025 128.003C99.3445 128.003 128.001 99.349 128.001 64.001C128.001 28.6545 99.3445 0 64.0025 0C28.657 0 0 28.6545 0 64.001Z" fill="#CB1F27"/>
</g>
<defs>
<clipPath id="clip0_1017_247">
<rect width="128" height="128" fill="white"/>
</clipPath>
</defs>
</svg>
