<svg width="128" height="128" viewBox="0 0 128 128" fill="none" xmlns="http://www.w3.org/2000/svg">
<g clip-path="url(#clip0_1017_254)">
<path d="M64 0C47.03 0 30.74 6.747 18.75 18.745C6.74763 30.7478 0.0033247 47.0258 0 64C0 80.967 6.75 97.257 18.75 109.255C30.74 121.253 47.03 128 64 128C80.97 128 97.26 121.253 109.25 109.255C121.25 97.257 128 80.967 128 64C128 47.033 121.25 30.743 109.25 18.745C97.26 6.747 80.97 0 64 0Z" fill="url(#paint0_linear_1017_254)"/>
<path d="M28.97 63.3242C47.63 55.1962 60.07 49.8372 66.29 47.2482C84.07 39.8552 87.76 38.5712 90.17 38.5277C90.7 38.5192 91.88 38.6502 92.65 39.2727C93.29 39.7977 93.47 40.5077 93.56 41.0062C93.64 41.5042 93.75 42.6392 93.66 43.5252C92.7 53.6452 88.53 78.2032 86.41 89.5382C85.52 94.3342 83.75 95.9422 82.04 96.0992C78.32 96.4412 75.5 93.6432 71.9 91.2842C66.27 87.5912 63.09 85.2932 57.62 81.6902C51.3 77.5262 55.4 75.2372 59 71.4972C59.94 70.5182 76.32 55.6232 76.63 54.2722C76.67 54.1032 76.71 53.4732 76.33 53.1412C75.96 52.8082 75.41 52.9222 75.01 53.0122C74.44 53.1402 65.45 59.0882 48.01 70.8552C45.46 72.6092 43.15 73.4642 41.07 73.4192C38.79 73.3702 34.39 72.1272 31.12 71.0652C27.12 69.7622 23.93 69.0732 24.21 66.8602C24.35 65.7082 25.94 64.5292 28.97 63.3242Z" fill="white"/>
</g>
<defs>
<linearGradient id="paint0_linear_1017_254" x1="6400" y1="0" x2="6400" y2="12800" gradientUnits="userSpaceOnUse">
<stop stop-color="#2AABEE"/>
<stop offset="1" stop-color="#229ED9"/>
</linearGradient>
<clipPath id="clip0_1017_254">
<rect width="128" height="128" fill="white"/>
</clipPath>
</defs>
</svg>
